<svg xmlns="http://www.w3.org/2000/svg" viewBox="0 0 110 110"><g data-name="11. Credit Card"><circle cx="55" cy="59" r="50" fill="#e7efff"/><circle cx="4" cy="15" r="3" fill="#ffa100"/><circle cx="96" cy="4" r="3" fill="#00c99f"/><circle cx="106" cy="102" r="3" fill="#ff4d69"/><circle cx="11" cy="100" r="3" fill="#00c99f"/><path fill="#a5bced" d="M71,22V86a14,14,0,0,1-14,14c-30.12,0-29,.14-31.1-.35A49.46,49.46,0,0,1,15.47,89.6C14.81,87.14,15,91.83,15,22A14,14,0,0,1,29,8H57A14,14,0,0,1,71,22Z"/><rect width="44" height="80" x="21" y="14" fill="#fff" rx="7"/><path fill="#a5bced" d="M31,13H55a0,0,0,0,1,0,0v3a4,4,0,0,1-4,4H35a4,4,0,0,1-4-4V13A0,0,0,0,1,31,13Z"/><path fill="#7f96d1" d="M41,17H37a2,2,0,0,1,0-4h4a2,2,0,0,1,0,4Z"/><circle cx="49" cy="15" r="2" fill="#7f96d1"/><path fill="#7f96d1" d="M13 25h2a0 0 0 010 0v7a0 0 0 010 0H13a1 1 0 01-1-1V26A1 1 0 0113 25zM13 36h2a0 0 0 010 0v7a0 0 0 010 0H13a1 1 0 01-1-1V37A1 1 0 0113 36zM55 90H31a2 2 0 010-4H55a2 2 0 010 4z"/><rect width="60" height="44" x="39" y="33" fill="#4e6aff" rx="6"/><path fill="#fff" d="M53.94,63A3.48,3.48,0,0,0,53,57.35V56a1,1,0,0,0-2,0v1H49V56a1,1,0,0,0-2,0v1H46a1,1,0,0,0,0,2h1v8H46a1,1,0,0,0,0,2h1v1a1,1,0,0,0,2,0V69h2v1a1,1,0,0,0,2,0V68.65A3.48,3.48,0,0,0,53.94,63ZM49,59h2.5a1.5,1.5,0,0,1,0,3H49Zm2.5,8H49V64h2.5a1.5,1.5,0,0,1,0,3Z"/><rect width="60" height="10" x="39" y="40" fill="#8fa2ff"/><path fill="#8fa2ff" d="M64 57H60a1 1 0 010-2h4a1 1 0 010 2zM68 63H60a1 1 0 010-2h8a1 1 0 010 2z"/><path fill="#fff" d="M90,59h3V57a2,2,0,0,0-2-2H90Z"/><path fill="#fff" d="M89,61a1,1,0,0,1-1-1V55H81a2,2,0,0,0-2,2v2h4a1,1,0,0,1,1,1v5h7a2,2,0,0,0,2-2V61Z"/><path fill="#fff" d="M82,61H79v2a2,2,0,0,0,2,2h1Z"/><circle cx="95" cy="33" r="13" fill="#00c99f"/><path fill="#fff" d="M92.59,37.41l-4-4a2,2,0,0,1,2.82-2.82L94,33.17l4.59-4.58a2,2,0,0,1,2.82,2.82l-6,6A2,2,0,0,1,92.59,37.41Z"/><path fill="#a5bced" d="M33,61a2,2,0,0,1-1.41-.59l-4-4a2,2,0,0,1,0-2.82l4-4a2,2,0,1,1,2.82,2.82L31.83,55l2.58,2.59A2,2,0,0,1,33,61Z"/><circle cx="75" cy="81" r="1" fill="#fff"/><circle cx="80" cy="81" r="1" fill="#fff"/></g></svg>