<svg xmlns="http://www.w3.org/2000/svg" data-name="Layer 1" viewBox="0 0 512 512"><path d="M320 251.562V214.286A8.245 8.245 0 0 0 312.016 206H289v53h23.016C316.427 259 320 255.973 320 251.562zM170.983 295h87.246A16.873 16.873 0 0 0 275 277.945V177H154V277.945A17.053 17.053 0 0 0 170.983 295z"/><polygon points="298 25.732 130.911 88 298 88 298 25.732"/><path d="M99,378.46V486H412V102H99Zm41-208.391A7.046,7.046,0,0,1,146.985,163H282.228A6.869,6.869,0,0,1,289,170.069V192h23.016A22.258,22.258,0,0,1,334,214.286v37.276C334,263.693,324.146,273,312.016,273H289v4.945A30.888,30.888,0,0,1,258.229,309H170.983A31.069,31.069,0,0,1,140,277.945ZM144.008,351h134.7a7,7,0,0,1,0,14h-134.7a7,7,0,0,1,0-14Zm0,58H370.281a7,7,0,0,1,0,14H144.008a7,7,0,0,1,0-14Z"/></svg>